HIERARCHY
ROOT Hips
{
	OFFSET 8.91173 92.52490 -21.95620
	CHANNELS 6 Xposition Yposition Zposition Zrotation Xrotation Yrotation
	JOINT Spine
	{
		OFFSET 0.00000 14.09320 -1.51142
		CHANNELS 3 Zrotation Xrotation Yrotation
		JOINT Spine1
		{
			OFFSET 0.00000 8.69660 0.00000
			CHANNELS 3 Zrotation Xrotation Yrotation
			JOINT Spine2
			{
				OFFSET 0.00000 8.69660 0.00000
				CHANNELS 3 Zrotation Xrotation Yrotation
				JOINT Spine3
				{
					OFFSET 0.00000 8.69660 0.00000
					CHANNELS 3 Zrotation Xrotation Yrotation
					JOINT Neck
					{
						OFFSET 0.00000 11.18130 1.11813
						CHANNELS 3 Zrotation Xrotation Yrotation
						JOINT Neck1
						{
							OFFSET 0.00000 5.70631 0.00000
							CHANNELS 3 Zrotation Xrotation Yrotation
							JOINT Head
							{
								OFFSET 0.00000 5.70631 0.00000
								CHANNELS 3 Zrotation Xrotation Yrotation
								End site
								{
									OFFSET 0.00000 9.71257 0.00000
								}
							}
						}
					}
					JOINT RightShoulder
					{
						OFFSET 0.00000 7.98668 5.19711
						CHANNELS 3 Zrotation Xrotation Yrotation
						JOINT RightArm
						{
							OFFSET 0.00000 18.31580 0.00000
							CHANNELS 3 Zrotation Xrotation Yrotation
							JOINT RightForeArm
							{
								OFFSET 0.00000 28.87420 0.00000
								CHANNELS 3 Zrotation Xrotation Yrotation
								JOINT RightHand
								{
									OFFSET 0.00000 23.87720 0.00000
									CHANNELS 3 Zrotation Xrotation Yrotation
									JOINT RightHandThumb1
									{
										OFFSET -2.41094 4.67063 3.47303
										CHANNELS 3 Zrotation Xrotation Yrotation
										JOINT RightHandThumb2
										{
											OFFSET 0.00000 3.95207 0.00000
											CHANNELS 3 Zrotation Xrotation Yrotation
											JOINT RightHandThumb3
											{
												OFFSET 0.00000 2.15568 0.00000
												CHANNELS 3 Zrotation Xrotation Yrotation
												End site
												{
													OFFSET 0.00000 1.91616 0.00000
												}
											}
										}
									}
									JOINT RightHandIndex1
									{
										OFFSET 0.00000 12.45500 2.51496
										CHANNELS 3 Zrotation Xrotation Yrotation
										JOINT RightHandIndex2
										{
											OFFSET 0.00000 4.79039 0.00000
											CHANNELS 3 Zrotation Xrotation Yrotation
											JOINT RightHandIndex3
											{
												OFFSET 0.00000 2.63472 0.00000
												CHANNELS 3 Zrotation Xrotation Yrotation
												End site
												{
													OFFSET 0.00000 1.91616 0.00000
												}
											}
										}
									}
									JOINT RightHandMiddle1
									{
										OFFSET 0.00000 12.45500 -0.07984
										CHANNELS 3 Zrotation Xrotation Yrotation
										JOINT RightHandMiddle2
										{
											OFFSET 0.00000 5.38919 0.00000
											CHANNELS 3 Zrotation Xrotation Yrotation
											JOINT RightHandMiddle3
											{
												OFFSET 0.00000 3.11376 0.00000
												CHANNELS 3 Zrotation Xrotation Yrotation
												End site
												{
													OFFSET 0.00000 2.03592 0.00000
												}
											}
										}
									}
									JOINT RightHandRing1
									{
										OFFSET 0.00000 11.07780 -2.67464
										CHANNELS 3 Zrotation Xrotation Yrotation
										JOINT RightHandRing2
										{
											OFFSET 0.00000 4.91015 0.00000
											CHANNELS 3 Zrotation Xrotation Yrotation
											JOINT RightHandRing3
											{
												OFFSET 0.00000 3.11376 0.00000
												CHANNELS 3 Zrotation Xrotation Yrotation
												End site
												{
													OFFSET 0.00000 2.03592 0.00000
												}
											}
										}
									}
									JOINT RightHandPinky1
									{
										OFFSET 0.00000 9.70055 -5.26943
										CHANNELS 3 Zrotation Xrotation Yrotation
										JOINT RightHandPinky2
										{
											OFFSET 0.00000 3.95207 0.00000
											CHANNELS 3 Zrotation Xrotation Yrotation
											JOINT RightHandPinky3
											{
												OFFSET 0.00000 2.15568 0.00000
												CHANNELS 3 Zrotation Xrotation Yrotation
												End site
												{
													OFFSET 0.00000 1.91616 0.00000
												}
											}
										}
									}
								}
							}
						}
					}
					JOINT LeftShoulder
					{
						OFFSET 0.00000 7.98668 5.19711
						CHANNELS 3 Zrotation Xrotation Yrotation
						JOINT LeftArm
						{
							OFFSET 0.00000 18.31580 0.00000
							CHANNELS 3 Zrotation Xrotation Yrotation
							JOINT LeftForeArm
							{
								OFFSET 0.00000 28.87420 0.00000
								CHANNELS 3 Zrotation Xrotation Yrotation
								JOINT LeftHand
								{
									OFFSET 0.00000 23.87720 0.00000
									CHANNELS 3 Zrotation Xrotation Yrotation
									JOINT LeftHandThumb1
									{
										OFFSET 2.41094 4.67063 3.47303
										CHANNELS 3 Zrotation Xrotation Yrotation
										JOINT LeftHandThumb2
										{
											OFFSET 0.00000 3.95207 0.00000
											CHANNELS 3 Zrotation Xrotation Yrotation
											JOINT LeftHandThumb3
											{
												OFFSET 0.00000 2.15568 0.00000
												CHANNELS 3 Zrotation Xrotation Yrotation
												End site
												{
													OFFSET 0.00000 1.60000 0.00000
												}
											}
										}
									}
									JOINT LeftHandIndex1
									{
										OFFSET 0.00000 12.45500 2.51496
										CHANNELS 3 Zrotation Xrotation Yrotation
										JOINT LeftHandIndex2
										{
											OFFSET 0.00000 4.79039 0.00000
											CHANNELS 3 Zrotation Xrotation Yrotation
											JOINT LeftHandIndex3
											{
												OFFSET 0.00000 2.63472 0.00000
												CHANNELS 3 Zrotation Xrotation Yrotation
												End site
												{
													OFFSET 0.00000 1.91616 0.00000
												}
											}
										}
									}
									JOINT LeftHandMiddle1
									{
										OFFSET 0.00000 12.45500 -0.07984
										CHANNELS 3 Zrotation Xrotation Yrotation
										JOINT LeftHandMiddle2
										{
											OFFSET 0.00000 5.38919 0.00000
											CHANNELS 3 Zrotation Xrotation Yrotation
											JOINT LeftHandMiddle3
											{
												OFFSET 0.00000 3.11376 0.00000
												CHANNELS 3 Zrotation Xrotation Yrotation
												End site
												{
													OFFSET 0.00000 2.03592 0.00000
												}
											}
										}
									}
									JOINT LeftHandRing1
									{
										OFFSET 0.00000 11.07780 -2.67464
										CHANNELS 3 Zrotation Xrotation Yrotation
										JOINT LeftHandRing2
										{
											OFFSET 0.00000 4.91015 0.00000
											CHANNELS 3 Zrotation Xrotation Yrotation
											JOINT LeftHandRing3
											{
												OFFSET 0.00000 3.11376 0.00000
												CHANNELS 3 Zrotation Xrotation Yrotation
												End site
												{
													OFFSET 0.00000 2.03592 0.00000
												}
											}
										}
									}
									JOINT LeftHandPinky1
									{
										OFFSET 0.00000 9.70055 -5.26943
										CHANNELS 3 Zrotation Xrotation Yrotation
										JOINT LeftHandPinky2
										{
											OFFSET 0.00000 3.95207 0.00000
											CHANNELS 3 Zrotation Xrotation Yrotation
											JOINT LeftHandPinky3
											{
												OFFSET 0.00000 2.15568 0.00000
												CHANNELS 3 Zrotation Xrotation Yrotation
												End site
												{
													OFFSET 0.00000 1.91616 0.00000
												}
											}
										}
									}
								}
							}
						}
					}
				}
			}
		}
	}
	JOINT RightUpLeg
	{
		OFFSET -10.06560 0.00000 0.00000
		CHANNELS 3 Zrotation Xrotation Yrotation
		JOINT RightLeg
		{
			OFFSET 0.00000 -42.98740 0.00000
			CHANNELS 3 Zrotation Xrotation Yrotation
			JOINT RightFoot
			{
				OFFSET 0.00000 -44.62500 0.00000
				CHANNELS 3 Zrotation Xrotation Yrotation
				JOINT RightForeFoot
				{
					OFFSET 0.00000 -3.74821 0.00000
					CHANNELS 3 Zrotation Xrotation Yrotation
					JOINT RightToeBase
					{
						OFFSET 0.00000 0.00000 14.67920
						CHANNELS 3 Zrotation Xrotation Yrotation
						End site
						{
							OFFSET 0.00000 0.00000 10.36040
						}
					}
				}
			}
		}
	}
	JOINT LeftUpLeg
	{
		OFFSET 10.06560 0.00000 0.00000
		CHANNELS 3 Zrotation Xrotation Yrotation
		JOINT LeftLeg
		{
			OFFSET 0.00000 -42.98740 0.00000
			CHANNELS 3 Zrotation Xrotation Yrotation
			JOINT LeftFoot
			{
				OFFSET 0.00000 -44.62500 0.00000
				CHANNELS 3 Zrotation Xrotation Yrotation
				JOINT LeftForeFoot
				{
					OFFSET 0.00000 -3.74821 0.00000
					CHANNELS 3 Zrotation Xrotation Yrotation
					JOINT LeftToeBase
					{
						OFFSET 0.00000 0.00000 14.67920
						CHANNELS 3 Zrotation Xrotation Yrotation
						End site
						{
							OFFSET 0.00000 0.00000 10.67280
						}
					}
				}
			}
		}
	}
}
MOTION
Frames: 5
Frame Time: 0.333333333
25.9114 89.0122 -62.4108 -0.764977 -0.546001 -170.885 -1.02281 -2.83151 -0.459159 -0.96114 3.44213 0.275341 -1.08919 -1.78686 -3.37953 1.8925 1.28976 -1.53049 1.90258 11.0128 -3.01813 0.704659 -3.06208 -6.03647 1.68516 -18.7455 -0.549617 90 0 0 73.8811 5.7557 -11.5383 6.14276e-05 83.611 32.2709 18.8163 -10.271 1.17673e-05 20.3584 -8.64982 3.19419 3.18055e-15 3.18055e-15 -0.0 -9.54166e-15 -6.36111e-15 4.77083e-15 -50.4651 1.59028e-15 1.59028e-15 3.18055e-15 1.59028e-15 -1.59028e-15 3.18055e-15 0.0 -0.0 -56.7203 3.18055e-15 3.18055e-15 6.36111e-15 4.77083e-15 -0.0 -3.18055e-15 3.18055e-15 -1.59028e-15 -39.0834 0.0 3.18055e-15 0.0 3.18055e-15 -0.0 -3.18055e-15 -4.77083e-15 -7.95139e-16 116.756 -4.77083e-15 -3.18055e-15 -3.18055e-15 0.0 -0.0 -4.41391e-32 1.59028e-15 1.59028e-15 -90 0 0 -81.8552 22.946 45.3537 -180.0 86.9053 -178.783 -13.8889 -14.0846 3.52629e-08 -44.2946 -14.2739 -13.526 -1.10348e-32 1.98785e-16 3.18055e-15 -1.59028e-15 -2.98177e-16 -7.95139e-16 -35.4585 -5.1684e-15 -1.59028e-14 -6.36111e-15 -3.97569e-15 -0.0 -3.18055e-15 1.98785e-15 3.18055e-15 -93.441 1.74931e-14 -3.65764e-14 -1.27222e-14 -7.95139e-15 -3.18055e-15 -3.18055e-15 4.77083e-15 -0.0 -84.1775 7.95139e-15 -3.81667e-14 -3.18055e-15 3.97569e-15 6.36111e-15 -8.82781e-32 -1.59028e-15 -3.18055e-15 -105.602 2.06736e-14 -3.4191e-14 -3.18055e-15 -6.36111e-15 -7.15625e-15 -1.10348e-31 -1.59028e-15 -3.97569e-15 1.95105 -7.53706 -3.87816 -2.37845e-16 16.6532 8.29949e-16 -2.70741 -21.2337 -3.53131 9.93923e-17 -1.59028e-15 -3.97569e-16 -3.58047e-16 8.98615 -1.20753e-15 6.79838 -6.84717 15.509 1.8326e-15 35.0377 -3.88453e-15 -6.24457 -19.3292 -5.98025 3.97569e-16 0.0 -0.0 3.97569e-16 -7.19019 -0.0
22.9569 89.0995 -60.5917 -1.93432 1.12598 175.826 0.588768 -2.23227 -0.672784 -0.399976 3.53689 0.0510529 -0.278645 -1.50767 -4.76479 3.19019 1.06123 -1.76776 1.88269 9.54453 -1.1536 0.175922 -3.39927 -0.717954 0.20322 -19.1694 -0.0937056 90 0 0 73.0112 3.38013 -22.8447 9.00147e-06 86.4417 26.7648 14.0039 -11.114 -6.74017e-07 23.3366 6.70969 -2.88568 6.36111e-15 0.0 -1.59028e-15 -3.18055e-15 1.59028e-15 -2.38542e-15 -38.1443 -7.95139e-15 7.95139e-15 -4.41391e-32 -1.59028e-15 -1.59028e-15 -8.82781e-32 -3.18055e-15 -1.59028e-15 -39.0327 -9.54166e-15 6.36111e-15 3.18055e-15 1.59028e-15 -1.59028e-15 8.82781e-32 1.59028e-15 -3.18055e-15 -22.0351 -6.36111e-15 3.97569e-15 -1.59028e-15 -3.18055e-15 7.95139e-16 1.59028e-15 -3.18055e-15 -0.0 18.1017 -6.36111e-15 -1.59028e-15 3.18055e-15 -6.36111e-15 -7.95139e-16 3.18055e-15 0.0 -2.38542e-15 -90 0 0 -83.3981 20.403 41.1259 180.0 87.1259 174.504 -12.7089 -13.4683 -7.18573e-09 -43.8907 -12.5336 -11.7921 -7.95139e-16 -1.32192e-14 -1.98785e-16 -7.95139e-16 -6.80837e-15 1.98785e-16 -25.167 3.97569e-16 -4.77083e-15 6.62086e-32 -1.19271e-15 3.18055e-15 -0.0 -1.19271e-15 -0.0 -96.7423 -4.77083e-15 -1.03368e-14 -6.36111e-15 -1.59028e-15 -1.59028e-15 -3.18055e-15 -3.18055e-15 7.95139e-16 -91.3717 -9.54166e-15 -7.95139e-15 3.18055e-15 -3.18055e-15 -0.0 3.18055e-15 -1.59028e-15 -0.0 -114.102 -1.59028e-15 -1.66979e-14 3.18055e-15 0.0 2.38542e-15 1.59028e-15 6.36111e-15 4.37326e-15 0.0625418 -9.41346 4.73724 2.58626e-16 18.9028 3.15174e-15 0.296697 -19.7894 1.60263 1.98785e-16 0.0 3.97569e-16 1.70563e-16 8.80154 -2.41384e-15 2.71231 -5.84299 7.37506 -7.65505e-16 37.7781 3.52103e-15 -6.3859 -17.5603 -6.96164 -2.48481e-16 1.59028e-15 -0.0 -1.06414e-15 -11.0719 1.51916e-16
17.3821 88.8993 -53.8658 -4.69271 0.34227 171.726 -2.3412 -0.617365 -0.981699 -0.413041 4.00321 0.0651143 -0.44464 -1.11588 -5.02156 3.00602 1.1658 -1.87579 1.24643 6.94651 -0.500776 -1.26135 -7.03415 0.0518854 -1.73614 -23.0677 -0.0274826 90 0 0 75.5848 2.33075 -25.9797 -2.55264e-05 86.5681 26.4872 15.8513 -9.65207 1.03421e-07 21.1448 2.87441 -1.11112 1.32417e-31 4.77083e-15 -1.59028e-15 -3.18055e-15 0.0 -3.18055e-15 -47.7185 4.77083e-15 -1.59028e-14 -6.36111e-15 0.0 4.77083e-15 -6.36111e-15 1.59028e-15 -3.18055e-15 -48.6581 7.95139e-15 -1.59028e-14 8.82781e-32 -1.59028e-15 3.18055e-15 0.0 0.0 -1.59028e-15 -31.1337 -3.18055e-15 -1.59028e-14 8.82781e-32 -3.18055e-15 1.59028e-15 -6.36111e-15 -3.18055e-15 4.77083e-15 27.7243 3.18055e-15 3.18055e-15 -2.64834e-31 3.18055e-15 4.77083e-15 -3.18055e-15 3.18055e-15 -0.0 -90 0 0 -81.9302 9.56713 39.1922 -180.0 87.9552 168.618 -13.7777 -13.2084 -2.20723e-07 -42.4295 -9.05416 -8.18557 -1.59028e-15 5.1684e-15 -0.0 -8.82781e-32 3.18055e-15 1.59028e-15 -15.8295 1.98785e-15 3.18055e-15 1.10348e-32 7.95139e-16 -7.95139e-16 -1.59028e-15 -2.78299e-15 7.95139e-16 -87.9773 -6.36111e-15 1.11319e-14 1.10348e-32 7.95139e-16 -7.95139e-16 3.18055e-15 0.0 3.18055e-15 -92.7749 -9.54166e-15 7.15625e-15 -3.18055e-15 0.0 3.97569e-15 -3.18055e-15 -2.38542e-15 -2.38542e-15 -117.538 -1.19271e-14 1.10822e-14 -3.97569e-16 0.0 4.32357e-15 -3.97569e-16 0.0 4.32357e-15 -5.63044 -17.4651 4.04529 1.61654e-15 21.4588 1.02523e-14 4.38089 -15.4575 6.77766 3.47873e-16 0.0 3.97569e-16 1.49089e-16 8.45202 -0.0 -4.5888 -3.61978 12.1588 4.73653e-17 23.4883 -8.66975e-16 -0.656773 -21.376 -3.19483 6.52262e-17 0.0 -0.0 -1.30452e-16 0.0999178 -0.0
15.5756 89.4357 -44.5949 -6.68535 -0.830847 172.632 -9.15613 1.60608 -0.696169 -1.21674 4.15093 0.425532 -1.69054 -1.07251 -2.96001 0.730167 1.37361 -1.55357 -0.314623 7.93519 -0.446345 -1.78018 -5.22772 -3.09405 -1.93359 -21.4991 -0.215885 90 0 0 76.9184 5.19729 -18.8824 -180.0 85.708 -158.632 12.6475 -11.6433 1.14765e-07 22.3392 1.1589 -0.476181 0.0 3.18055e-15 -0.0 2.20695e-32 1.59028e-15 -7.95139e-16 -45.7469 0.0 -6.36111e-15 -4.41391e-32 1.59028e-15 1.59028e-15 -3.18055e-15 -1.59028e-15 3.18055e-15 -45.9759 1.59028e-15 -6.36111e-15 3.18055e-15 1.59028e-15 4.77083e-15 -3.18055e-15 0.0 -0.0 -28.0161 -1.59028e-15 -1.59028e-15 -0.0 -1.59028e-15 -0.0 -2.20695e-32 1.59028e-15 7.95139e-16 13.1832 -3.18055e-15 1.59028e-15 3.18055e-15 -7.95139e-15 -7.95139e-16 3.18055e-15 -3.18055e-15 -7.95139e-16 -90 0 0 -74.5674 4.15789 36.3077 180.0 88.6299 165.611 -13.4924 -15.366 9.44327e-09 -40.8324 -4.79658 -4.13301 -1.59028e-15 -1.59028e-15 -0.0 -7.95139e-16 2.38542e-15 -0.0 -15.3051 3.97569e-15 -6.36111e-15 -0.0 0.0 6.36111e-15 3.18055e-15 -3.97569e-15 -3.18055e-15 -89.7109 9.54166e-15 -6.36111e-15 3.18055e-15 -3.18055e-15 -1.59028e-15 -3.18055e-15 -6.36111e-15 6.36111e-15 -93.8956 9.54166e-15 -7.95139e-15 -0.0 0.0 3.18055e-15 -9.54166e-15 -3.18055e-15 -0.0 -118.259 1.27222e-14 -1.59028e-15 1.59028e-15 -6.36111e-15 -0.0 -2.20695e-32 -3.18055e-15 -3.97569e-16 -11.9885 -19.6709 -9.81882 6.72852e-16 21.5156 6.83756e-15 2.45446 -17.3169 0.929415 8.82781e-32 1.59028e-15 -3.18055e-15 -1.42825e-15 2.91633 -3.18468e-15 -7.67409 -8.81527 9.10882 3.0553e-16 18.5409 -3.77401e-15 1.22655 -15.4693 -1.05075 3.23025e-16 0.0 -1.98785e-16 3.16173e-16 1.07063 -2.98229e-16
18.9912 89.1141 -40.1064 -6.60098 -0.0735054 174.296 -8.06986 -2.05704 0.109019 -1.30066 3.55653 0.493911 -1.72728 -1.76661 -1.42764 0.455522 1.32331 -1.21951 -0.348425 10.9985 1.61374 -0.927648 -4.04029 0.235973 -1.327 -20.1766 0.0366628 90 0 0 78.6392 7.21146 -11.1188 -180.0 80.6373 -170.715 10.1013 -8.89995 1.62188e-07 17.2728 -4.12516 1.28138 -3.18055e-15 3.97569e-16 -3.97569e-16 3.18055e-15 -3.97569e-16 -1.98785e-16 -36.6898 -4.96962e-16 4.17448e-15 1.8966e-33 1.09332e-15 -9.93923e-17 3.18055e-15 -6.95746e-16 2.98177e-15 -36.6751 -2.98177e-16 4.77083e-15 -3.18055e-15 -1.39149e-15 -4.96962e-16 -1.27222e-14 -1.19271e-15 1.19271e-15 -21.9272 -1.09332e-15 2.08724e-15 -4.58632e-32 -1.88845e-15 -1.39149e-15 3.18055e-15 -1.39149e-15 7.95139e-16 -0.484507 -9.93923e-17 7.99021e-16 -0.0 0.0 7.98245e-16 4.96962e-17 9.93923e-17 -7.92421e-16 -90 0 0 -75.1451 3.5102 38.5836 -180.0 88.4628 162.948 -13.0896 -14.1334 3.81679e-07 -39.4086 -3.91406 -3.21017 -7.95139e-16 -2.08724e-15 -9.54166e-15 -3.97569e-16 -4.47266e-16 -0.0 -12.809 3.18055e-15 -0.0 8.82781e-32 -1.59028e-15 3.18055e-15 0.0 1.59028e-15 -0.0 -59.8861 3.18055e-15 -9.54166e-15 -0.0 -7.95139e-16 -0.0 0.0 2.38542e-15 -0.0 -79.0563 7.95139e-15 -1.59028e-14 3.18055e-15 0.0 1.59028e-15 4.41391e-32 1.59028e-15 -1.59028e-15 -108.192 1.59028e-14 -1.66979e-14 -6.36111e-15 0.0 -3.97569e-15 -3.18055e-15 -3.18055e-15 3.97569e-15 -14.2636 -4.34787 -9.26493 -1.88577e-15 31.3395 7.44773e-15 8.73809 -23.9415 6.36979 -9.93923e-17 0.0 -3.18055e-15 1.18048e-16 -1.45411 -3.18158e-15 -4.83855 -12.6631 8.87597 -1.8893e-16 22.2617 -3.43672e-15 -0.71145 -13.9469 -2.6353 6.21202e-18 7.95139e-16 -9.93923e-17 -1.14704e-17 1.03257 -3.97634e-16
